# xmcd
#
# Track frame offsets:
# 150
# 17060
# 33075
# 51700
# 72417
# 86032
# 101090
# 117790
# 131132
# 144262
# 155382
# 172235
# 184860
# 197225
# 213925
# 221142
# 239355
# 252055
# 273240
# 285795
# 292920
# 302412
#
# Disc length: 4256 seconds
#
#
# Revision: 1
# Processed by: cddbd v1.5.1PL0 Copyright (c) Steve Scherf et al.
# Submitted via: FreeRIP 2.30 
#
DISCID=46109e16
DTITLE=Pino Daniele - The Platinum Collection CD1
DYEAR=2004
DGENRE=Blues
TTITLE0=Napule è
TTITLE1=Basta 'na jurnata e sole
TTITLE2=I say I' sto' cca'
TTITLE3=Quanno chiove
TTITLE4=A me me piace 'o blues
TTITLE5='Na tazzulella 'e cafè
TTITLE6=Je sto vicino a te
TTITLE7=Je so pazzo
TTITLE8=Che calore
TTITLE9=E cerca 'e me capì
TTITLE10=Putesse essere allero
TTITLE11=Chillo è nu buono guaglione
TTITLE12=Chi tene 'o mare
TTITLE13=Il mare
TTITLE14=Viento
TTITLE15=Voglio di più
TTITLE16=Musica musica
TTITLE17=Ue man!
TTITLE18=Cammina cammina
TTITLE19=Appocundria
TTITLE20=Terra mia
TTITLE21=A testa in giù
EXTD=
EXTT0=
EXTT1=
EXTT2=
EXTT3=
EXTT4=
EXTT5=
EXTT6=
EXTT7=
EXTT8=
EXTT9=
EXTT10=
EXTT11=
EXTT12=
EXTT13=
EXTT14=
EXTT15=
EXTT16=
EXTT17=
EXTT18=
EXTT19=
EXTT20=
EXTT21=
PLAYORDER=
